<?xml version="1.0" encoding="UTF-8" standalone="no" ?>
<!DOCTYPE svg PUBLIC "-//W3C//DTD SVG 1.1//EN" "http://www.w3.org/Graphics/SVG/1.1/DTD/svg11.dtd">
<svg xmlns="http://www.w3.org/2000/svg" xmlns:xlink="http://www.w3.org/1999/xlink" version="1.1" width="126" height="42" viewBox="0 0 126 42" xml:space="preserve">
<desc>Created with Fabric.js 5.3.0</desc>
<defs>
</defs>
<g transform="matrix(1 0 0 1 13.326725 21)" id="t_Kz21gyZPLmliXtBiyGZ"  >
<path style="stroke: rgb(0,0,0); stroke-width: 0; stroke-dasharray: none; stroke-linecap: butt; stroke-dashoffset: 0; stroke-linejoin: miter; stroke-miterlimit: 4; fill: rgb(0,0,0); fill-rule: nonzero; opacity: 1;"  transform=" translate(-0.000005, 0)" d="M -10.32672 -18 L -10.32672 18 L 9.17328 18 L 10.32673 12 L -4.32672 12 L -4.32672 -18 z" stroke-linecap="round" />
</g>
<g transform="matrix(1 0 0 1 73.8465549577 36)" id="aCwfMdFEbby-DN8T0-r3h"  >
<path style="stroke: rgb(0,0,0); stroke-width: 0; stroke-dasharray: none; stroke-linecap: butt; stroke-dashoffset: 0; stroke-linejoin: miter; stroke-miterlimit: 4; fill: rgb(106,90,209); fill-rule: nonzero; opacity: 1;"  transform=" translate(0.000005, 0)" d="M -49.15345 3 L 47.653439999999996 3 L 49.153439999999996 -3 L -48.346560000000004 -3 z" stroke-linecap="round" />
</g>
<g transform="matrix(1 0 0 1 25.6071213398 59.4946794186)" id="tI9lpRoy9ySu6cE1FtSTq"  >
<path style="stroke: rgb(0,0,0); stroke-width: 1; stroke-dasharray: none; stroke-linecap: butt; stroke-dashoffset: 0; stroke-linejoin: miter; stroke-miterlimit: 4; fill: rgb(255,255,255); fill-opacity: 0; fill-rule: nonzero; opacity: 1;"  transform=" translate(0, 0)" d="M 0 0" stroke-linecap="round" />
</g>
<g transform="matrix(1 0 0 1 39 0.5)" id="mvNGTiApXlaVhtFVlfQ2t"  >
<path style="stroke: rgb(0,0,0); stroke-width: 1; stroke-dasharray: none; stroke-linecap: butt; stroke-dashoffset: 0; stroke-linejoin: miter; stroke-miterlimit: 4; fill: rgb(255,255,255); fill-opacity: 0; fill-rule: nonzero; opacity: 1;"  transform=" translate(0, 0)" d="M 0 0" stroke-linecap="round" />
</g>
<g transform="matrix(1 0 0 1 39 0.5)" id="y1d2MQRWa0j7VldJ77vs-"  >
<path style="stroke: rgb(0,0,0); stroke-width: 1; stroke-dasharray: none; stroke-linecap: butt; stroke-dashoffset: 0; stroke-linejoin: miter; stroke-miterlimit: 4; fill: rgb(255,255,255); fill-opacity: 0; fill-rule: nonzero; opacity: 1;"  transform=" translate(0, 0)" d="M 0 0" stroke-linecap="round" />
</g>
<g transform="matrix(1 0 0 1 19.5000019831 16.5)" id="fWjOWZmuaLXBqXd0N7pdw"  >
<path style="stroke: rgb(0,0,0); stroke-width: 0; stroke-dasharray: none; stroke-linecap: butt; stroke-dashoffset: 0; stroke-linejoin: miter; stroke-miterlimit: 4; fill: rgb(0,0,0); fill-rule: nonzero; opacity: 1;"  transform=" translate(0, 0)" d="M -7.5 -13.5 L -7.5 13.5 L 7.5 13.5 L 6 7.5 L -1.5 7.5 L -1.5 3 L 3 3 L 3 -3 L -1.5 -3 L -1.5 -7.5 L 6 -7.5 L 7.5 -13.5 z" stroke-linecap="round" />
</g>
<g transform="matrix(1 0 0 1 58.5000019831 16.5)" id="BgFxOnwsZ2KryB01em_99"  >
<path style="stroke: rgb(0,0,0); stroke-width: 0; stroke-dasharray: none; stroke-linecap: butt; stroke-dashoffset: 0; stroke-linejoin: miter; stroke-miterlimit: 4; fill: rgb(0,0,0); fill-rule: nonzero; opacity: 1;"  transform=" translate(0, 0)" d="M -7.5 -13.5 L -7.5 13.5 L 7.5 13.5 L 6 7.5 L -1.5 7.5 L -1.5 3 L 3 3 L 3 -3 L -1.5 -3 L -1.5 -7.5 L 6 -7.5 L 7.5 -13.5 z" stroke-linecap="round" />
</g>
<g transform="matrix(1 0 0 1 94.5000019831 16.5)" id="uU5PYZE4cM7ISe4GkGfnm"  >
<path style="stroke: rgb(0,0,0); stroke-width: 0; stroke-dasharray: none; stroke-linecap: butt; stroke-dashoffset: 0; stroke-linejoin: miter; stroke-miterlimit: 4; fill: rgb(0,0,0); fill-rule: nonzero; opacity: 1;"  transform=" translate(0, 0)" d="M -7.5 -13.5 L -7.5 13.5 L 7.5 13.5 L 6 7.5 L -1.5 7.5 L -1.5 3 L 3 3 L 3 -3 L -1.5 -3 L -1.5 -7.5 L 6 -7.5 L 7.5 -13.5 z" stroke-linecap="round" />
</g>
<g transform="matrix(1 0 0 1 76.5000019831 16.5)" id="D0PUykcrrxClidqEILzCe"  >
<path style="stroke: rgb(0,0,0); stroke-width: 0; stroke-dasharray: none; stroke-linecap: butt; stroke-dashoffset: 0; stroke-linejoin: miter; stroke-miterlimit: 4; fill: rgb(0,0,0); fill-rule: nonzero; opacity: 1;"  transform=" translate(0, 0)" d="M -7.5 -13.5 L -7.5 13.5 L 7.5 13.5 L 6 7.5 L -1.5 7.5 L -1.5 -13.5 z" stroke-linecap="round" />
</g>
<g transform="matrix(1 0 0 1 36.0000019831 16.5)" id="fmpahCBNs63oBslZbI2_W"  >
<path style="stroke: rgb(0,0,0); stroke-width: 0; stroke-dasharray: none; stroke-linecap: butt; stroke-dashoffset: 0; stroke-linejoin: miter; stroke-miterlimit: 4; fill: rgb(0,0,0); fill-rule: nonzero; opacity: 1;"  transform=" translate(0, 0)" d="M -6 -13.5 L 0 -13.5 L 6 13.5 L 0 13.5 z" stroke-linecap="round" />
</g>
<g transform="matrix(1 0 0 1 43.8750019831 14.8125)" id="TbAJn2r3QpycAX6x5Ffw0"  >
<path style="stroke: rgb(0,0,0); stroke-width: 0; stroke-dasharray: none; stroke-linecap: butt; stroke-dashoffset: 0; stroke-linejoin: miter; stroke-miterlimit: 4; fill: rgb(0,0,0); fill-rule: nonzero; opacity: 1;"  transform=" translate(-4.125, -11.8125)" d="M 2.25 0 L 8.25 0 L 3 23.625 L 0 10.125 z" stroke-linecap="round" />
</g>
<g transform="matrix(1 0 0 1 102.0000019831 3)" id="0sim6k2aww15w8StOCPns"  >
<path style="stroke: rgb(0,0,0); stroke-width: 1; stroke-dasharray: none; stroke-linecap: butt; stroke-dashoffset: 0; stroke-linejoin: miter; stroke-miterlimit: 4; fill: rgb(255,255,255); fill-opacity: 0; fill-rule: nonzero; opacity: 1;"  transform=" translate(0, 0)" d="M 0 0" stroke-linecap="round" />
</g>
<g transform="matrix(1 0 0 1 102.0000019831 3)" id="hPF-vuseFyULxeVl_bs94"  >
<path style="stroke: rgb(0,0,0); stroke-width: 1; stroke-dasharray: none; stroke-linecap: butt; stroke-dashoffset: 0; stroke-linejoin: miter; stroke-miterlimit: 4; fill: rgb(255,255,255); fill-opacity: 0; fill-rule: nonzero; opacity: 1;"  transform=" translate(0, 0)" d="M 0 0" stroke-linecap="round" />
</g>
<g transform="matrix(1 0 0 1 114.0000019831 16.5)" id="g_9bvxDH0UnBLK8DgkoE1"  >
<path style="stroke: rgb(0,0,0); stroke-width: 0; stroke-dasharray: none; stroke-linecap: butt; stroke-dashoffset: 0; stroke-linejoin: miter; stroke-miterlimit: 4; fill: rgb(0,0,0); fill-rule: nonzero; opacity: 1;"  transform=" translate(0, 0)" d="M -3 13.5 L -9 13.5 L -9 -13.5 L 4.5 -13.5 L 9 -13.5 L 3 0 L 9 13.5 L 3 13.5 L -3 0 L 0.3333300000000001 -7.5 L -3 -7.5 z" stroke-linecap="round" />
</g>
</svg>